Genre:Action | Horror
Language:English
IMDb:http://www.imdb.com/title/tt1411232/
Source:720p.BluRay.x264-MeTH

General
Complete name :13HRS.2010.720p.BRRip.H264.Feel-Free
Format : MPEG-4
Format profile : Base Media / Version 2
Codec ID : mp42
File size : 1.19 GiB
Duration : 1h 24mn
Overall bit rate : 2 016 Kbps
Video #1
Codec ID : avc1
Codec ID/Info : Advanced Video Coding
Duration : 1h 24mn
Bit rate mode : Variable
Bit rate : 1 512 Kbps
Width : 1 280 pixels
Height : 720 pixels
Display aspect ratio : 16:9
Frame rate mode : Constant
Frame rate : 23.976 fps
Resolution : 24 bits
Colorimetry : 4:2:0
Scan type : Progressive
Bits/(Pixel*Frame) : 0.068
Stream size : 917 MiB (75%)
Audio #2
ID : 2
Format : AAC
Format/Info : Advanced Audio Codec
Format version : Version 4
Format profile : LC
Format settings, SBR : No
Codec ID : 40
Duration : 1h 24mn
Bit rate mode : Constant
Bit rate : 501 Kbps
Nominal bit rate : 576 Kbps
Channel(s) : 6 channels
Channel positions : Front: L C R, Rear: L R, LFE
Sampling rate : 48.0 KHz
Resolution : 16 bits
Stream size : 304 MiB (25%)

Plot:
Sarah Tyler returns to her troubled family home in the isolated countryside, for a much put-off visit. As a storm rages outside, Sarah, her family and friends shore up for the night, cut off from the outside world. But something comes out of the driving rain and darkness. Something that holds a dark secret so devastating that, in one night, it could wipe out the entire family.









================================== 
http://thepiratebay.org/user/hiest
==================================









Screenshots:
 
http://img221.imageshack.us/img221/5319/13hrs2010720pbrriph264f.jpg
 
http://img41.imageshack.us/img41/5319/13hrs2010720pbrriph264f.jpg
 
http://img264.imageshack.us/img264/5319/13hrs2010720pbrriph264f.jpg
 
http://img222.imageshack.us/img222/5319/13hrs2010720pbrriph264f.jpg
 
http://img43.imageshack.us/img43/5319/13hrs2010720pbrriph264f.jpg